<svg width="302" height="90" viewBox="0 0 302 90" fill="none" xmlns="http://www.w3.org/2000/svg">
<g clip-path="url(#clip0_1_25)">
<path d="M117.69 82.49V85.41H116.39V66.04H117.69V74.9C118.86 73.12 120.58 71.56 123.26 71.56C126.52 71.56 129.84 74.19 129.84 78.59V78.64C129.84 83.05 126.52 85.72 123.26 85.72C120.55 85.72 118.8 84.18 117.69 82.48V82.49ZM128.44 78.7V78.65C128.44 75.09 125.97 72.81 123.13 72.81C120.29 72.81 117.61 75.17 117.61 78.62V78.67C117.61 82.15 120.32 84.48 123.13 84.48C125.94 84.48 128.44 82.33 128.44 78.7Z" fill="white"/>
<path d="M143.82 71.88H145.25L139.39 85.89C138.2 88.73 136.82 89.74 134.88 89.74C133.84 89.74 133.1 89.55 132.2 89.16L132.65 88.02C133.37 88.36 133.95 88.52 134.96 88.52C136.37 88.52 137.29 87.7 138.3 85.34L131.8 71.89H133.31L138.93 83.99L143.81 71.89L143.82 71.88Z" fill="white"/>
<path d="M156.71 66.83H165.04C167.16 66.83 168.83 67.41 169.9 68.47C170.72 69.29 171.15 70.3 171.15 71.55V71.6C171.15 73.83 169.88 75.02 168.5 75.74C170.68 76.48 172.19 77.73 172.19 80.25V80.3C172.19 83.62 169.46 85.39 165.32 85.39H156.72V66.82L156.71 66.83ZM167.88 72.08C167.88 70.62 166.71 69.72 164.62 69.72H159.92V74.66H164.38C166.48 74.66 167.88 73.84 167.88 72.14V72.09V72.08ZM165.09 77.41H159.92V82.5H165.33C167.56 82.5 168.91 81.62 168.91 79.95V79.9C168.91 78.33 167.66 77.41 165.09 77.41Z" fill="white"/>
<path d="M175.5 71.4H178.71V74.56C179.59 72.46 181.2 71.03 183.67 71.14V74.54H183.48C180.67 74.54 178.7 76.37 178.7 80.08V85.41H175.49V71.4H175.5Z" fill="white"/>
<path d="M185.21 78.48V78.43C185.21 74.42 188.39 71.11 192.69 71.11C196.99 71.11 200.15 74.37 200.15 78.38V78.43C200.15 82.41 196.97 85.73 192.64 85.73C188.31 85.73 185.21 82.47 185.21 78.49V78.48ZM196.94 78.48V78.43C196.94 75.96 195.16 73.92 192.64 73.92C190.12 73.92 188.42 75.94 188.42 78.38V78.43C188.42 80.87 190.2 82.91 192.69 82.91C195.18 82.91 196.94 80.89 196.94 78.48Z" fill="white"/>
<path d="M202.48 81.38V81.33C202.48 78.3 204.84 76.82 208.27 76.82C209.84 76.82 210.95 77.06 212.04 77.4V77.06C212.04 75.07 210.82 74.01 208.56 74.01C206.99 74.01 205.83 74.35 204.55 74.89L203.7 72.37C205.24 71.68 206.75 71.23 208.98 71.23C211.08 71.23 212.64 71.79 213.62 72.8C214.66 73.81 215.13 75.29 215.13 77.13V85.44H212V83.69C211.04 84.83 209.58 85.73 207.44 85.73C204.81 85.73 202.48 84.22 202.48 81.4V81.38ZM212.09 80.37V79.41C211.27 79.09 210.18 78.85 208.91 78.85C206.84 78.85 205.62 79.73 205.62 81.18V81.23C205.62 82.58 206.81 83.35 208.35 83.35C210.47 83.35 212.09 82.13 212.09 80.35V80.37Z" fill="white"/>
<path d="M218.26 78.43V78.38C218.26 73.74 221.42 71.11 224.76 71.11C227.07 71.11 228.53 72.25 229.54 73.58V66.04H232.75V85.41H229.54V83.08C228.51 84.54 227.05 85.71 224.76 85.71C221.47 85.71 218.26 83.08 218.26 78.44V78.43ZM229.59 78.43V78.38C229.59 75.67 227.68 73.9 225.53 73.9C223.38 73.9 221.5 75.6 221.5 78.38V78.43C221.5 81.14 223.36 82.91 225.53 82.91C227.7 82.91 229.59 81.11 229.59 78.43Z" fill="white"/>
<path d="M236.01 78.48V78.43C236.01 74.45 239.09 71.11 243.31 71.11C245.94 71.11 247.58 72.09 248.91 73.53L246.89 75.68C245.91 74.64 244.87 73.93 243.28 73.93C240.95 73.93 239.22 75.95 239.22 78.39V78.44C239.22 80.93 240.94 82.92 243.41 82.92C244.92 82.92 246.04 82.23 247.05 81.2L248.99 83.11C247.61 84.65 245.99 85.74 243.26 85.74C239.09 85.74 236.02 82.48 236.02 78.5L236.01 78.48Z" fill="white"/>
<path d="M250.76 78.48V78.43C250.76 74.42 253.94 71.11 258.24 71.11C262.54 71.11 265.7 74.37 265.7 78.38V78.43C265.7 82.41 262.52 85.73 258.19 85.73C253.86 85.73 250.76 82.47 250.76 78.49V78.48ZM262.49 78.48V78.43C262.49 75.96 260.71 73.92 258.19 73.92C255.67 73.92 253.97 75.94 253.97 78.38V78.43C253.97 80.87 255.75 82.91 258.24 82.91C260.73 82.91 262.49 80.89 262.49 78.48Z" fill="white"/>
<path d="M268.96 71.4H272.17V73.52C273.07 72.27 274.29 71.1 276.44 71.1C278.46 71.1 279.89 72.08 280.63 73.57C281.74 72.08 283.23 71.1 285.35 71.1C288.4 71.1 290.26 73.04 290.26 76.46V85.4H287.05V77.44C287.05 75.21 286.02 74.02 284.21 74.02C282.4 74.02 281.21 75.24 281.21 77.5V85.41H278V77.42C278 75.24 276.94 74.02 275.16 74.02C273.38 74.02 272.16 75.35 272.16 77.5V85.41H268.95V71.4H268.96Z" fill="white"/>
<path d="M129.83 43.23L116.67 6.59C116.5 6.08 116.25 5.41 116.25 4.83C116.25 3.24 117.59 1.73 119.52 1.73C121.2 1.73 122.29 2.83 122.79 4.41L133.69 35.98L144.67 4.32C145.17 2.82 146.18 1.73 147.85 1.73H148.19C149.95 1.73 151.05 2.83 151.55 4.32L162.44 35.98L173.52 4.24C173.94 2.9 174.86 1.73 176.62 1.73C178.38 1.73 179.8 3.15 179.8 4.75C179.8 5.33 179.55 6.01 179.38 6.52L166.13 43.24C165.45 45.16 164.11 46.16 162.61 46.16H162.35C160.68 46.16 159.42 45.16 158.82 43.24L148.02 12.1L137.12 43.24C136.54 45.16 135.27 46.16 133.6 46.16H133.43C131.84 46.16 130.5 45.16 129.83 43.24" fill="white"/>
<path d="M225.75 4.92C225.75 3.15 227.17 1.64 228.93 1.64C230.78 1.64 232.21 3.06 232.21 4.92V12.36C235.4 5.14 242.47 1.73 247.16 1.73C249.09 1.73 250.36 3.16 250.36 5C250.36 6.84 249.18 8.02 247.5 8.28C239.1 9.29 232.21 15.58 232.21 28.11V42.83C232.21 44.59 230.87 46.1 229.02 46.1C227.17 46.1 225.75 44.67 225.75 42.83V4.92Z" fill="white"/>
<path d="M271.11 46.5C259.42 46.5 249.88 37.44 249.88 24.14V23.97C249.88 11.6 258.52 1.62 270.29 1.62C282.87 1.62 290.03 12 290.03 23.4C290.03 25.14 288.62 26.39 287.07 26.39H256.3C257.19 35.7 263.69 40.93 271.27 40.93C276.54 40.93 280.4 38.86 283.53 35.94C284.02 35.53 284.6 35.2 285.34 35.2C286.89 35.2 288.14 36.45 288.14 37.95C288.14 38.69 287.82 39.44 287.14 40.02C283.11 43.92 278.34 46.5 271.1 46.5M283.69 21.64C283.03 13.83 278.58 7.02 270.11 7.02C262.7 7.02 257.1 13.25 256.29 21.64H283.68H283.69Z" fill="white"/>
<path d="M179.91 33.05V32.88C179.91 23.76 187.44 18.9 198.41 18.9C203.93 18.9 207.86 19.66 211.73 20.74V19.23C211.73 11.44 206.94 7.42 198.83 7.42C194.47 7.42 191.94 7.98 188.75 9.4C188.33 9.57 187.91 9.65 187.58 9.65C186.07 9.65 184.72 8.39 184.72 6.89C184.72 5.55 185.31 4.73 186.49 4.2C190.75 2.35 193.96 1.74 199.49 1.74C205.6 1.74 210.29 3.32 213.47 6.51C216.4 9.44 217.91 13.63 217.91 19.15V43.04C217.91 44.88 216.57 46.22 214.8 46.22C213.03 46.22 211.72 44.88 211.72 43.2V39.07C208.7 43.01 203.68 46.53 196.07 46.53C188.03 46.53 179.9 41.92 179.9 33.05M211.8 29.7V25.52C208.62 24.6 204.34 23.67 199.07 23.67C190.96 23.67 186.43 27.2 186.43 32.63V32.8C186.43 38.24 191.45 41.42 197.31 41.42C205.26 41.42 211.79 36.56 211.79 29.7" fill="white"/>
<path d="M12.53 4.44C11.11 1.34 7.61 -0.0800008 4.34 1.39C1.07 2.84 -0.140001 6.47 1.34 9.59L15.08 39.45C17.24 44.13 19.52 46.59 23.79 46.59C28.35 46.59 30.35 43.91 32.5 39.45C32.5 39.45 44.49 13.35 44.6 13.09C44.73 12.81 45.11 11.97 46.33 11.97C47.36 11.98 48.23 12.8 48.23 13.9V39.43C48.23 43.36 50.41 46.59 54.61 46.59C58.81 46.59 61.07 43.36 61.07 39.43V18.55C61.07 14.52 63.96 11.91 67.89 11.91C71.82 11.91 74.44 14.61 74.44 18.55V39.43C74.44 43.36 76.63 46.59 80.82 46.59C85.01 46.59 87.29 43.36 87.29 39.43V18.55C87.29 14.52 90.17 11.91 94.1 11.91C98.03 11.91 100.65 14.61 100.65 18.55V39.43C100.65 43.36 102.83 46.59 107.03 46.59C111.23 46.59 113.5 43.36 113.5 39.43V15.66C113.5 6.92 106.48 0.799999 98.03 0.799999C89.58 0.799999 84.3 6.65 84.3 6.65C81.49 3.01 77.62 0.809999 71.06 0.809999C64.14 0.809999 58.09 6.65 58.09 6.65C55.27 3.01 50.49 0.809999 46.53 0.809999C40.4 0.809999 35.53 3.5 32.57 10.3L23.79 30.98L12.53 4.44Z" fill="white"/>
<path d="M290.55 7.03V6.99C290.55 4.07 292.92 1.61 295.9 1.61C298.88 1.61 301.26 4.04 301.26 6.96V6.99C301.26 9.92 298.9 12.38 295.9 12.38C292.9 12.38 290.55 9.96 290.55 7.03ZM300.23 6.99C300.23 4.58 298.38 2.6 295.9 2.6C293.42 2.6 291.56 4.6 291.56 6.99V7.02C291.56 9.42 293.42 11.38 295.9 11.38C298.38 11.38 300.23 9.38 300.23 6.98" fill="white"/>
<path d="M293.86 4.88C293.86 4.56 294.11 4.3 294.43 4.3H296.22C296.89 4.3 297.41 4.49 297.73 4.84C298.03 5.12 298.19 5.54 298.19 6.02V6.04C298.19 6.86 297.77 7.36 297.15 7.62L297.94 8.58C298.05 8.72 298.12 8.84 298.12 9.01C298.12 9.32 297.86 9.54 297.58 9.54C297.33 9.54 297.16 9.41 297.02 9.25L295.91 7.84H295V8.97C295 9.29 294.75 9.54 294.43 9.54C294.11 9.54 293.86 9.29 293.86 8.97V4.88ZM296.16 6.82C296.72 6.82 297.03 6.54 297.03 6.09V6.07C297.03 5.59 296.7 5.33 296.15 5.33H295.01V6.82H296.16Z" fill="white"/>
</g>
<defs>
<clipPath id="clip0_1_25">
<rect width="302" height="90" fill="white"/>
</clipPath>
</defs>
</svg>
